<?xml version="1.0" encoding="UTF-8" standalone="no"?>
<!-- Created with Inkscape (http://www.inkscape.org/) -->

<svg
   xmlns:dc="http://purl.org/dc/elements/1.1/"
   xmlns:cc="http://creativecommons.org/ns#"
   xmlns:rdf="http://www.w3.org/1999/02/22-rdf-syntax-ns#"
   xmlns:svg="http://www.w3.org/2000/svg"
   xmlns="http://www.w3.org/2000/svg"
   xmlns:sodipodi="http://sodipodi.sourceforge.net/DTD/sodipodi-0.dtd"
   xmlns:inkscape="http://www.inkscape.org/namespaces/inkscape"
   version="1.0"
   width="885.82678"
   height="164.81279"
   id="svg2"
   inkscape:version="0.91 r13725"
   sodipodi:docname="TUClausthal.svg">
  <metadata
     id="metadata22">
    <rdf:RDF>
      <cc:Work
         rdf:about="">
        <dc:format>image/svg+xml</dc:format>
        <dc:type
           rdf:resource="http://purl.org/dc/dcmitype/StillImage" />
        <dc:title></dc:title>
      </cc:Work>
    </rdf:RDF>
  </metadata>
  <sodipodi:namedview
     pagecolor="#ffffff"
     bordercolor="#666666"
     borderopacity="1"
     objecttolerance="10"
     gridtolerance="10"
     guidetolerance="10"
     inkscape:pageopacity="0"
     inkscape:pageshadow="2"
     inkscape:window-width="1705"
     inkscape:window-height="947"
     id="namedview20"
     showgrid="false"
     fit-margin-top="0"
     fit-margin-left="0"
     fit-margin-right="0"
     fit-margin-bottom="0"
     inkscape:zoom="0.32403294"
     inkscape:cx="-286.95069"
     inkscape:cy="576.18336"
     inkscape:window-x="0"
     inkscape:window-y="0"
     inkscape:window-maximized="0"
     inkscape:current-layer="svg2" />
  <defs
     id="defs4">
    <inkscape:perspective
       id="perspective10" />
    <inkscape:perspective
       id="perspective2370" />
  </defs>
  <g
     transform="translate(-203.25904,-239.9093)"
     id="layer1">
    <g
       transform="matrix(1.931447,0,0,1.931447,-120.88795,-308.5874)"
       id="g2468">
      <path
         d="m 236.99973,353.15602 15.51125,0 0,15.51 -15.51125,0 0,-15.51 z"
         id="path2374"
         style="fill:#808080;fill-opacity:1;fill-rule:nonzero;stroke:none"
         inkscape:connector-curvature="0" />
      <path
         d="m 252.51223,347.49227 0,-63.51 -84.68625,0 0,84.685 63.515,0 0,-21.17125 21.17125,-0.004"
         id="path2376"
         style="fill:#008d4f;fill-opacity:1;fill-rule:nonzero;stroke:none"
         inkscape:connector-curvature="0" />
      <path
         d="m 224.125,294.53125 -2.0625,2.09375 2.03125,2.03125 L 218,304.75 l 0.0312,-2.34375 -4.6875,0 0,7.5 -6.34375,0 0,-7.5 -4.625,0 0,2.125 -5.90625,-5.3125 2.5625,-2.5625 -2.09375,-2.09375 -6.65625,6.65625 2.0625,2.09375 2.65625,-2.65625 7.375,6.78125 -0.0312,2.59375 0,30.625 c 2.205,-0.54 4.99499,-1.01 8.03125,-0.9375 2.955,0.0738 5.57124,0.51626 7.625,1 l 0,-30.75 0,-2.34375 7.53125,-7.53125 3.1875,3.1875 0.21875,-2.09375 0.21875,-1.625 -5.03125,-5.03125 z m -37.6875,11.125 c -0.45875,0 -0.53125,0.71499 -0.78125,1.15625 -0.6075,0.15125 -0.71875,0.18749 -0.71875,0.1875 0,0 -0.56625,-0.47 -0.96875,-0.65625 -0.58125,-0.26625 -1.37999,0.28499 -1.4375,0.875 -0.075,0.7775 0.97249,0.52126 0.625,1.71875 -0.0863,0.29875 -1.15999,1.96876 -0.875,1.96875 1.12875,0 1.6725,1.26624 1.625,1.96875 -0.11375,1.635 -2.1925,3.95251 -1.625,3.6875 0.54125,-0.25125 2.52125,-0.0375 2.125,0.65625 -0.39625,0.69375 -2.4625,4.5575 -1.96875,4.0625 0.3575,-0.36 1.395,-0.42249 1.21875,0.15625 -0.955,3.11625 -1.4725,4.41999 -2.5625,6.5 -1.48375,0.19875 -2.86125,-1.87999 -1.53125,-3.875 0.1725,-0.64625 1.8375,-3.29249 1.9375,-4.875 0.0975,-1.585 -0.75,-3.75 -0.75,-3.75 1.09,-0.79125 0.28375,-4.7325 -2.40625,-6 -0.05,0.15375 0.65125,0.60251 0.25,1.5 -0.205,0.5975 -0.7875,1.59626 -0.5,2.78125 C 178.42,315.6225 179.79,315.16 180,315.6875 c 2.03625,5.055 -2.31875,7.58126 -2.21875,10.75 0.1,3.1725 3.56249,3.28124 3.5625,3.28125 0.33125,0.4425 0.31249,0.43751 0.3125,0.4375 0.4825,0.63875 1.015,1.36251 1.0625,1.5625 0.0925,0.36625 -0.6725,2.08251 -0.5625,2.71875 0.0775,0.44375 1.98374,2.58 2.4375,3.21875 0.37625,0.705 -0.48375,2.28376 0.875,3.5 0.0813,-0.68125 0.40501,-1.57751 0.46875,-1.65625 1.02125,-0.0638 1.53999,0.66124 2.21875,2.4375 0.84375,-0.85625 0.73626,-2.18626 0.3125,-2.875 0.7325,0.0763 1.13625,0.28749 2.375,1.03125 0.1675,-1.57375 -1.5,-2.43749 -1.5,-2.4375 0,0 1.08375,-0.04 1.625,0 -0.0475,-0.1825 -0.57626,-0.615 -1.03125,-0.84375 -0.4525,-0.23 -2.6875,0 -2.6875,0 l -1.34375,-2.5 c 0,0 1.36375,-1.61125 1.5,-2.25 0.1375,-0.64 -0.6875,-2.115 -0.1875,-2.34375 0.49875,-0.22625 1.97001,0.21376 2.65625,0.9375 0.71875,0.76125 -0.71626,2.89748 0.46875,3.0625 1.95125,0.27375 3.21875,3.78126 3.21875,3.78125 0,0 -0.0813,0.78499 -0.125,0.96875 -0.0462,0.1825 0.90625,1.59373 0.90625,1.59375 L 195.25,338.25 c 0.16375,-0.33 1.33624,-0.4375 2.25,-0.65625 l 0,4.6875 c 0,0 1.34124,-0.64874 3.53125,-1.28125 l 0,-30.96875 -3.5,0 -0.0312,25.625 c -1.0175,-0.5125 -2.45125,-0.80126 -3.0625,-0.96875 -0.045,-0.23125 -0.70375,-1.75625 -0.65625,-1.9375 0.045,-0.1825 0.565,-1.2325 0.15625,-2.875 -0.36875,-1.48 -2.88001,-3.55125 -4.6875,-4.4375 l -0.15625,0.0937 c 0.4,-0.68125 0.6175,-1.57625 0.9375,-1.40625 0.6325,0.3325 1.70124,1.72501 2,1.625 0.295,-0.0987 0.10126,-0.63001 0.5,-0.53125 l 0.6875,1.1875 c 0.6225,0.42875 1.11375,1.03499 1.28125,1.125 0.1625,0.0888 0.4875,0.26374 0.90625,0.28125 0.41875,0.0188 0.56249,-0.40626 0.5625,-0.40625 0,0 -0.49501,-0.0125 -0.8125,-0.21875 -0.2725,-0.18125 -0.43751,-0.67251 -0.0625,-0.65625 0.565,0.0238 1.05251,0.50749 1.71875,-0.0312 0.35375,-0.28875 0.34376,-0.53126 0.34375,-0.53125 0,0 -0.5275,0.17375 -0.90625,0.15625 -0.37875,-0.015 -0.86125,-0.36501 -0.65625,-0.65625 0.22125,-0.315 0.9575,-0.05 1.375,-0.46875 0.47375,-0.47125 0.3125,-0.875 0.3125,-0.875 0,0 -0.11249,0.25999 -0.78125,0.375 -0.6675,0.1175 -0.72875,-0.0887 -1.03125,-0.28125 -0.26875,-0.1675 -0.59376,-0.53124 -0.59375,-0.53125 0,0 0.0775,-0.34876 0.3125,-0.5625 0.23625,-0.2175 0.78125,-0.15625 0.78125,-0.15625 0,0 -0.39625,-0.45499 -0.6875,-0.46875 -0.29,-0.0113 -0.64251,-0.055 -1.25,0.5 -0.28875,0.265 -0.50999,0.50001 -0.65625,0.6875 l -1.25,-1.3125 c 0,0 -1.12375,-0.70375 -0.90625,-1.03125 0.55625,-0.8325 1.075,-1.77376 1.28125,-2.5 0.1325,-0.46 -0.46624,-1.92875 -1.0625,-2.71875 0.56125,-0.61125 1.845,-2.00499 2,-2.3125 0.13,-0.26 0.39625,-0.91751 1.625,-2.34375 l 0.8125,-0.75 c 0.44125,-0.70375 1.0975,-1.24751 1.1875,-1.4375 0.0875,-0.18125 0.25,-0.56876 0.25,-1.03125 0,-0.4625 -0.46875,-0.625 -0.46875,-0.625 0,0 0.025,0.54875 -0.1875,0.90625 -0.18375,0.31 -0.74999,0.53751 -0.75,0.125 0,-0.62125 0.5325,-1.16626 -0.0937,-1.875 -0.3325,-0.375 -0.62501,-0.375 -0.625,-0.375 0,0 0.21875,0.58249 0.21875,1 0,0.4175 -0.35625,0.96125 -0.6875,0.75 -0.35625,-0.2275 -0.0825,-1.05874 -0.5625,-1.5 -0.54125,-0.49875 -0.96875,-0.28124 -0.96875,-0.28125 0,0 0.27749,0.0838 0.4375,0.8125 0.16,0.73 -0.0525,0.84499 -0.25,1.1875 -0.175,0.3025 -0.5625,0.65624 -0.5625,0.65625 0,0 -0.40875,-0.0663 -0.65625,-0.3125 -0.24875,-0.24875 -0.21876,-0.875 -0.21875,-0.875 0,0 -0.4375,0.46125 -0.4375,0.78125 0,0.31875 -0.0462,0.70375 0.59375,1.34375 0.30625,0.305 0.56875,0.53375 0.78125,0.6875 l -3.03125,3.4375 c -0.16375,0.0275 -0.67,0.0825 -1,0 -0.3975,-0.0987 -1.13124,-0.625 -0.4375,-0.625 0.69375,0 1.03626,-0.75627 1,-0.90625 -0.07,-0.295 -0.97749,-0.49376 -1.375,-0.59375 -0.395,-0.0975 -0.30124,-1.82377 -0.15625,-1.96875 0.1475,-0.1475 1.94375,0.60499 2,0.46875 0.0775,-0.18125 0.47,-1.02249 0.0625,-1.25 -0.0975,-0.0537 -0.1875,-0.0738 -0.0937,-0.28125 0.10125,-0.21375 0.0575,-0.47374 0,-0.53125 -0.2025,-0.19875 -1.14125,-0.68251 -1.4375,-0.78125 -0.29875,-0.1 -0.88125,-0.5025 -1.71875,-0.84375 l 0.34375,0 c 0,0 0.14751,-0.245 0.1875,-0.34375 0.0737,-0.1875 0.1575,-0.34375 0,-0.5 -0.1575,-0.1575 -0.45376,-0.28126 -0.78125,-0.28125 z m 47.4375,0.0937 c -0.3275,-1e-5 -0.62375,0.125 -0.78125,0.28125 -0.1575,0.1575 -0.0737,0.3125 0,0.5 0.0387,0.0987 0.1875,0.34375 0.1875,0.34375 l 0.34375,0 c -0.83876,0.34126 -1.42,0.74375 -1.71875,0.84375 -0.29626,0.0987 -1.2375,0.58125 -1.4375,0.78125 -0.0588,0.0563 -0.1,0.3175 0,0.53125 0.095,0.20875 0.004,0.22625 -0.0937,0.28125 -0.40751,0.22626 -0.0137,1.06875 0.0625,1.25 0.0575,0.13624 1.8525,-0.61625 2,-0.46875 0.14375,0.14499 0.24,1.87125 -0.15625,1.96875 -0.39625,0.0987 -1.30625,0.3 -1.375,0.59375 -0.0362,0.15124 0.30625,0.90625 1,0.90625 0.69375,0 -0.0412,0.52625 -0.4375,0.625 -0.32999,0.0825 -0.83625,0.0275 -1,0 L 227.4375,310.75 c 0.21125,-0.15499 0.475,-0.38125 0.78125,-0.6875 0.63876,-0.63875 0.59375,-1.025 0.59375,-1.34375 1e-5,-0.32125 -0.4375,-0.78125 -0.4375,-0.78125 0,0 0.0288,0.62625 -0.21875,0.875 -0.24875,0.24749 -0.65625,0.3125 -0.65625,0.3125 -1e-5,-10e-6 -0.38875,-0.35375 -0.5625,-0.65625 -0.19751,-0.34251 -0.41,-0.45625 -0.25,-1.1875 0.16,-0.72749 0.4375,-0.8125 0.4375,-0.8125 1e-5,-2e-5 -0.4275,-0.2175 -0.96875,0.28125 -0.48,0.44126 -0.20375,1.2725 -0.5625,1.5 -0.32999,0.21 -0.6875,-0.3325 -0.6875,-0.75 1e-5,-0.41751 0.21875,-1 0.21875,-1 0,0 -0.2925,10e-4 -0.625,0.375 -0.62626,0.70875 -0.0937,1.25375 -0.0937,1.875 0,0.41251 -0.56625,0.18375 -0.75,-0.125 -0.2125,-0.35875 -0.1875,-0.90625 -0.1875,-0.90625 1e-5,0 -0.46875,0.16375 -0.46875,0.625 0,0.46124 0.16375,0.85 0.25,1.03125 0.0913,0.18874 0.745,0.73375 1.1875,1.4375 l 0.8125,0.75 c 1.22999,1.42624 1.49375,2.08375 1.625,2.34375 0.155,0.30626 1.43875,1.70125 2,2.3125 -0.5975,0.79125 -1.195,2.25875 -1.0625,2.71875 0.20751,0.72624 0.72625,1.66625 1.28125,2.5 0.2175,0.32625 -0.90625,1.03125 -0.90625,1.03125 l -1.25,1.3125 c -0.14625,-0.18749 -0.36625,-0.4225 -0.65625,-0.6875 -0.60625,-0.55501 -0.96,-0.5125 -1.25,-0.5 -0.29124,0.0125 -0.6875,0.46875 -0.6875,0.46875 0,0 0.545,-0.0612 0.78125,0.15625 0.23624,0.21499 0.3125,0.5625 0.3125,0.5625 0,10e-6 -0.325,0.36375 -0.59375,0.53125 -0.30251,0.19373 -0.36375,0.3975 -1.03125,0.28125 -0.66875,-0.11626 -0.78125,-0.375 -0.78125,-0.375 -10e-6,0 -0.1625,0.4025 0.3125,0.875 0.41876,0.4175 1.15375,0.15375 1.375,0.46875 0.20501,0.29249 -0.2775,0.64125 -0.65625,0.65625 -0.37875,0.0175 -0.90625,-0.15625 -0.90625,-0.15625 0,-10e-6 -0.01,0.2425 0.34375,0.53125 0.66625,0.53999 1.155,0.0562 1.71875,0.0312 0.37625,-0.0163 0.21,0.47625 -0.0625,0.65625 -0.31875,0.2075 -0.8125,0.21875 -0.8125,0.21875 0,-1e-5 0.145,0.42375 0.5625,0.40625 0.41999,-0.0175 0.74375,-0.1925 0.90625,-0.28125 0.16751,-0.09 0.65875,-0.69625 1.28125,-1.125 l 0.6875,-1.1875 c 0.3975,-0.0988 0.20375,0.43125 0.5,0.53125 0.2975,0.0988 1.3675,-1.29125 2,-1.625 0.31876,-0.17 0.5375,0.725 0.9375,1.40625 l -0.15625,-0.0937 c -1.80625,0.88375 -4.32,2.95875 -4.6875,4.4375 -0.40874,1.6425 0.11125,2.6925 0.15625,2.875 0.0475,0.18251 -0.61125,1.70625 -0.65625,1.9375 -0.61124,0.16749 -2.04375,0.4575 -3.0625,0.96875 l -0.0312,-25.625 -3.5,0 0,30.96875 c 2.19,0.63376 3.53125,1.25 3.53125,1.25 l 0,-4.65625 c 0.915,0.2175 2.08625,0.32625 2.25,0.65625 l 0.90625,1.8125 c -1e-5,-10e-6 0.9525,-1.4125 0.90625,-1.59375 -0.0438,-0.18501 -0.125,-0.96875 -0.125,-0.96875 0,10e-6 1.26875,-3.5075 3.21875,-3.78125 1.18625,-0.16626 -0.25,-2.30125 0.46875,-3.0625 0.685,-0.72499 2.15625,-1.16375 2.65625,-0.9375 0.49875,0.2275 -0.325,1.70375 -0.1875,2.34375 0.13626,0.63875 1.5,2.25 1.5,2.25 l -1.34375,2.5 c -1e-5,10e-6 -2.23375,-0.22875 -2.6875,0 -0.45375,0.22876 -0.98375,0.66125 -1.03125,0.84375 0.54125,-0.04 1.625,0 1.625,0 -1e-5,10e-6 -1.66625,0.86375 -1.5,2.4375 1.24,-0.74251 1.6425,-0.955 2.375,-1.03125 -0.42375,0.68874 -0.53125,2.02 0.3125,2.875 0.67875,-1.775 1.1975,-2.5 2.21875,-2.4375 0.0637,0.0787 0.38625,0.97625 0.46875,1.65625 1.35751,-1.21624 0.4975,-2.795 0.875,-3.5 0.4525,-0.63874 2.36,-2.77375 2.4375,-3.21875 0.11001,-0.63624 -0.655,-2.35375 -0.5625,-2.71875 0.0475,-0.20124 0.58,-0.92375 1.0625,-1.5625 0,10e-6 -0.0188,0.005 0.3125,-0.4375 0,-10e-6 3.4625,-0.10875 3.5625,-3.28125 0.0987,-3.16999 -4.25625,-5.69375 -2.21875,-10.75 0.21,-0.5275 1.58,-0.0638 1.90625,-1.96875 0.28749,-1.18374 -0.295,-2.185 -0.5,-2.78125 -0.40125,-0.89749 0.30125,-1.34625 0.25,-1.5 -2.68874,1.26625 -3.495,5.20875 -2.40625,6 0,0 -0.84875,2.16375 -0.75,3.75 0.1,1.58376 1.765,4.2275 1.9375,4.875 1.33,1.99376 -0.0462,4.07375 -1.53125,3.875 -1.08874,-2.08001 -1.6075,-3.38375 -2.5625,-6.5 -0.17751,-0.57874 0.8625,-0.51375 1.21875,-0.15625 0.495,0.49626 -1.5725,-3.36875 -1.96875,-4.0625 -0.39626,-0.69376 1.58375,-0.90625 2.125,-0.65625 0.56625,0.26501 -1.51125,-2.0525 -1.625,-3.6875 -0.05,-0.70251 0.49625,-1.96875 1.625,-1.96875 0.28375,10e-6 -0.7875,-1.66875 -0.875,-1.96875 -0.34625,-1.19624 0.69875,-0.94125 0.625,-1.71875 -0.0575,-0.59126 -0.855,-1.14125 -1.4375,-0.875 -0.40124,0.18625 -0.96875,0.65625 -0.96875,0.65625 -1e-5,-10e-6 -0.11125,-0.0362 -0.71875,-0.1875 C 234.405,306.46374 234.33375,305.75 233.875,305.75 Z m -47,2.1875 c 0.3025,-1e-5 0.53125,0.23625 0.53125,0.53125 0,0.29249 -0.22875,0.53125 -0.53125,0.53125 -0.3025,-1e-5 -0.5625,-0.23875 -0.5625,-0.53125 0,-0.29501 0.26,-0.53125 0.5625,-0.53125 z m 46.5625,0.0937 c 0.3025,0 0.5625,0.23624 0.5625,0.53125 0,0.2925 -0.26,0.53124 -0.5625,0.53125 -0.3025,0 -0.53125,-0.23876 -0.53125,-0.53125 0,-0.295 0.22875,-0.53126 0.53125,-0.53125 z m -42.15625,3.0625 c 0,0 -0.26125,0.22376 -0.9375,0.34375 -0.645,0.115 -0.72499,-0.26501 -1.21875,-0.125 -0.495,0.1425 -0.6875,0.5625 -0.6875,0.5625 0,0 0.345,-0.10249 0.78125,-0.0937 0.37,0.007 0.57375,0.22625 1,0.1875 0.5425,-0.05 1.0625,-0.875 1.0625,-0.875 z m 37.75,0.0937 c 1e-5,0 0.51875,0.825 1.0625,0.875 0.42625,0.0387 0.63,-0.18 1,-0.1875 0.43501,-0.009 0.78125,0.0937 0.78125,0.0937 -1e-5,0 -0.19125,-0.42 -0.6875,-0.5625 -0.4925,-0.14126 -0.5725,0.24125 -1.21875,0.125 -0.67501,-0.12002 -0.9375,-0.34375 -0.9375,-0.34375 z m -21.46875,8.90625 c 0,0 3.14375,0.36751 4.15625,3.5 0.78125,2.41125 -0.74626,3.01874 -0.84375,5.125 -0.0675,1.54375 1.86999,2.27499 2.03125,4.1875 0.2525,2.93625 -2.65625,4.68751 -2.65625,4.6875 0,0 -3.19251,-1.30999 -3.625,-5.1875 -0.52875,-4.70875 1.22,-4.72625 2.1875,-7.25 0.99,-2.585 -1.25001,-5.06252 -1.25,-5.0625 z m 1.59375,21.09375 c -2.5502,0.0704 -4.84516,0.55813 -6.28125,1 1.5575,1.25626 4.18125,2.28125 7.40625,2.28125 3.24001,0 6.25875,-1.01625 7.8125,-2.28125 -1.68,-0.47876 -4.56375,-0.9225 -7.8125,-1 -0.37219,-0.009 -0.76069,-0.0101 -1.125,0 z"
         id="path2378"
         style="fill:#ffffff;fill-opacity:1;fill-rule:nonzero;stroke:none"
         inkscape:connector-curvature="0" />
      <path
         d="m 284.16848,361.19727 c 0,5.56625 -0.24,5.2675 5.1475,5.92625 l 0,1.55625 -16.1025,0 0,-1.55625 c 5.3875,-0.65875 5.14875,-0.36 5.14875,-5.92625 l 0,-33.23375 -5.3875,0 c -5.20875,0 -6.40625,3.29125 -8.3825,7.2425 l -1.495,0 1.615,-9.1575 33.105,0 1.61625,9.1575 -1.4975,0 c -1.975,-3.95125 -3.17125,-7.2425 -8.38,-7.2425 l -5.3875,0 0,33.23375"
         id="path2396"
         style="fill:#808080;fill-opacity:1;fill-rule:nonzero;stroke:none"
         inkscape:connector-curvature="0" />
      <path
         d="m 312.00973,351.16852 c 0,8.38 2.275,14.78625 11.19375,14.78625 8.20125,0 12.5125,-5.5075 12.5125,-15.085 l 0,-16.64 c 0,-1.2575 -0.24,-2.275 -0.36,-3.2325 -0.29875,-2.155 -2.33375,-2.9925 -5.1475,-3.29375 l 0,-1.555 14.12625,0 0,1.555 c -2.8725,0.30125 -4.8475,1.13875 -5.1475,3.29375 -0.12,0.9575 -0.35875,1.975 -0.35875,3.2325 l 0,16.88 c 0,12.86875 -8.20125,17.6575 -15.92375,17.6575 -12.75125,0 -16.70125,-6.465 -16.70125,-17.29875 l 0,-17.8375 c 0,-5.56625 0.23875,-5.2675 -5.14875,-5.9275 l 0,-1.555 16.10375,0 0,1.555 c -5.38875,0.66 -5.14875,0.36125 -5.14875,5.9275 l 0,17.5375"
         id="path2398"
         style="fill:#808080;fill-opacity:1;fill-rule:nonzero;stroke:none"
         inkscape:connector-curvature="0" />
      <path
         d="m 405.80723,357.93977 -1.79625,7.48375 c 0,1.31625 -1.0775,1.55625 -2.7525,2.095 -2.275,0.7775 -6.465,1.795 -11.67375,1.795 -12.27125,0 -23.34625,-5.865 -23.34625,-21.9075 0,-9.21875 7.8425,-21.43 23.945,-21.43 5.8075,0 8.56,1.0775 11.49375,2.03625 1.67625,0.53875 2.33375,1.37625 2.33375,2.33375 l 0,7.72125 -1.555,0 c -0.18,-4.7875 -3.2325,-9.995 -12.75125,-9.995 -11.195,0 -16.58125,8.08 -16.64125,18.855 -0.06,11.91125 5.3875,20.29125 17.59875,20.29125 7.9625,0 11.67375,-4.54875 13.58875,-9.27875 l 1.55625,0"
         id="path2400"
         style="fill:#808080;fill-opacity:1;fill-rule:nonzero;stroke:none"
         inkscape:connector-curvature="0" />
      <path
         d="m 419.69598,324.71977 0,36.3925 c 0,5.38875 -0.3,5.20875 4.79,5.9275 l 0,1.55625 -14.9675,0 0,-1.55625 c 5.09,-0.71875 4.79125,-0.53875 4.79125,-5.9275 l 0,-30.52625 c 0,-1.6175 -0.72125,-2.63375 -2.275,-2.63375 l -2.51625,0 0,-1.55625 c 3.59125,-0.12 7.42375,-0.83875 10.0575,-1.79625 l 0.12,0.12"
         id="path2402"
         style="fill:#808080;fill-opacity:1;fill-rule:nonzero;stroke:none"
         inkscape:connector-curvature="0" />
      <path
         d="m 446.87473,369.31352 c -0.89875,-1.0775 -1.3775,-2.9325 -1.3775,-4.72875 l -4.67125,3.11375 c -1.375,0.8975 -3.05125,1.615 -4.9075,1.615 -3.95125,0 -7.24375,-3.47125 -7.24375,-7.84125 0,-5.68625 3.35375,-7.4825 10.3575,-10.235 l 6.465,-2.515 c 0,-5.2075 -1.37625,-8.67875 -5.09,-8.67875 -3.65125,0 -4.90875,3.29125 -6.34375,5.4475 -0.18,0.29875 -0.42,0.29875 -0.7775,0.23875 l -2.0375,-0.47875 c -0.3575,-0.12 -0.53875,-0.35875 -0.47875,-0.77875 l 0.89875,-3.1725 c 0.36,-1.1375 1.0175,-1.61625 1.73625,-1.855 2.7525,-1.0775 4.7875,-1.49625 7.42125,-1.49625 7.005,0 10.05875,3.11125 10.05875,9.6375 l 0,13.2875 c 0,3.05375 0.17875,5.6275 4.19,4.07 l 0.35875,1.67625 -8.55875,2.69375 z m -1.3775,-18.31625 c -5.27,1.975 -11.43375,3.4125 -11.43375,9.51625 0,2.815 1.855,5.08875 4.6075,5.08875 3.11375,0 6.82625,-2.03625 6.82625,-9.93625 l 0,-4.66875"
         id="path2404"
         style="fill:#808080;fill-opacity:1;fill-rule:nonzero;stroke:none"
         inkscape:connector-curvature="0" />
      <path
         d="m 483.20973,369.31352 c -0.89875,-1.0175 -1.37625,-2.8725 -1.37625,-4.60875 l -5.2675,3.0525 c -2.515,1.43625 -3.8325,1.55625 -5.5675,1.55625 -6.885,0 -8.74125,-4.96875 -8.74125,-11.6725 l 0,-13.1075 c 0,-2.75375 -1.855,-2.515 -4.79,-2.515 l 0,-1.55625 c 3.2325,-0.12 7.24375,-0.83875 10.05875,-2.51375 l 0.12,0.11875 0,19.035 c 0,4.49 0.71875,8.68 5.98625,8.68 5.5675,0 8.20125,-2.99375 8.20125,-11.8525 l 0,-9.39625 c 0,-2.75375 -1.8575,-2.515 -4.78875,-2.515 l 0,-1.55625 c 3.29125,-0.12 7.30125,-0.83875 10.055,-2.51375 l 0.12,0.11875 0,22.80625 c 0,3.05375 0.18,5.6275 4.19,4.07 l 0.36,1.67625 -8.56,2.69375"
         id="path2406"
         style="fill:#808080;fill-opacity:1;fill-rule:nonzero;stroke:none"
         inkscape:connector-curvature="0" />
      <path
         d="m 496.43973,360.99352 1.55375,0 c -0.0575,4.19 3.055,6.225 6.5275,6.225 3.47125,0 5.50625,-2.63375 5.50625,-5.1475 0,-3.89125 -3.11125,-5.2675 -6.70375,-7.84125 -4.84875,-3.5325 -6.82375,-4.49 -6.82375,-8.44 0,-5.02875 4.66875,-7.84125 9.5775,-7.84125 1.915,0 4.31,0.11875 7.0625,1.0175 l 0,5.985 -1.55625,0 c -0.17875,-2.035 -1.975,-4.9075 -5.3875,-4.9075 -2.5125,0 -4.61,1.49625 -4.61,3.83 0,2.87375 3.055,4.43 7.425,7.5425 5.62625,3.95 6.345,6.165 6.345,8.91875 0,6.225 -5.6275,8.97875 -10.835,8.97875 -3.2925,0 -5.86625,-0.53875 -8.08125,-1.615 l 0,-6.705"
         id="path2408"
         style="fill:#808080;fill-opacity:1;fill-rule:nonzero;stroke:none"
         inkscape:connector-curvature="0" />
      <path
         d="m 538.64223,341.65977 -2.45375,1.1975 -6.64375,0 0,15.74125 c 0,2.335 0.11875,7.12375 4.0675,7.12375 1.6175,0 3.17375,-0.12 4.61125,-0.7175 l 0.41875,1.555 -6.945,2.75375 c -4.18875,0 -7.54125,-1.25625 -7.54125,-9.4575 l 0,-16.99875 -4.79,0 0,-2.755 4.79,0 0,-6.28375 c 1.0775,-1.1375 2.27375,-2.215 3.77125,-3.3525 l 1.6175,0 0,9.63625 9.0975,0 0,1.5575"
         id="path2410"
         style="fill:#808080;fill-opacity:1;fill-rule:nonzero;stroke:none"
         inkscape:connector-curvature="0" />
      <path
         d="m 551.81223,324.71977 0,18.495 c 2.575,-2.99125 6.88375,-5.26625 12.09125,-5.26625 7.30375,0 8.74,4.36875 8.74,10.595 l 0,12.56875 c 0,5.38875 -0.3,5.20875 4.79,5.9275 l 0,1.55625 -14.9675,0 0,-1.55625 c 5.09,-0.71875 4.79,-0.53875 4.79,-5.9275 l 0,-11.01375 c 0,-3.77125 -0.24,-9.03875 -6.58375,-9.03875 -7.6625,0 -8.86,6.58625 -8.86,12.75125 l 0,7.30125 c 0,5.38875 -0.29875,5.20875 4.78875,5.9275 l 0,1.55625 -14.9675,0 0,-1.55625 c 5.09,-0.71875 4.79,-0.53875 4.79,-5.9275 l 0,-30.52625 c 0,-1.6175 -0.71875,-2.63375 -2.275,-2.63375 l -2.515,0 0,-1.55625 c 3.5925,-0.12 7.42625,-0.83875 10.05875,-1.79625 l 0.12,0.12"
         id="path2412"
         style="fill:#808080;fill-opacity:1;fill-rule:nonzero;stroke:none"
         inkscape:connector-curvature="0" />
      <path
         d="m 599.82098,369.31352 c -0.89875,-1.0775 -1.3775,-2.9325 -1.3775,-4.72875 l -4.66875,3.11375 c -1.3775,0.8975 -3.0525,1.615 -4.90875,1.615 -3.95125,0 -7.2425,-3.47125 -7.2425,-7.84125 0,-5.68625 3.3525,-7.4825 10.35625,-10.235 l 6.46375,-2.515 c 0,-5.2075 -1.3775,-8.67875 -5.08875,-8.67875 -3.65,0 -4.9075,3.29125 -6.345,5.4475 -0.1775,0.29875 -0.41875,0.29875 -0.7775,0.23875 l -2.035,-0.47875 c -0.35875,-0.12 -0.54,-0.35875 -0.47875,-0.77875 l 0.8975,-3.1725 c 0.36,-1.1375 1.0175,-1.61625 1.73625,-1.855 2.75375,-1.0775 4.78875,-1.49625 7.4225,-1.49625 7.00375,0 10.0575,3.11125 10.0575,9.6375 l 0,13.2875 c 0,3.05375 0.18,5.6275 4.19,4.07 l 0.36,1.67625 -8.56125,2.69375 z m -1.3775,-18.31625 c -5.2675,1.975 -11.43375,3.4125 -11.43375,9.51625 0,2.815 1.85625,5.08875 4.61,5.08875 3.1125,0 6.82375,-2.03625 6.82375,-9.93625 l 0,-4.66875"
         id="path2414"
         style="fill:#808080;fill-opacity:1;fill-rule:nonzero;stroke:none"
         inkscape:connector-curvature="0" />
      <path
         d="m 621.67098,324.71977 0,36.3925 c 0,5.38875 -0.30125,5.20875 4.78875,5.9275 l 0,1.55625 -14.96625,0 0,-1.55625 c 5.08875,-0.71875 4.78875,-0.53875 4.78875,-5.9275 l 0,-30.52625 c 0,-1.6175 -0.7175,-2.63375 -2.27375,-2.63375 l -2.515,0 0,-1.55625 c 3.59125,-0.12 7.4225,-0.83875 10.05625,-1.79625 l 0.12125,0.12"
         id="path2416"
         style="fill:#808080;fill-opacity:1;fill-rule:nonzero;stroke:none"
         inkscape:connector-curvature="0" />
    </g>
  </g>
</svg>
