<?xml version="1.0" encoding="UTF-8" standalone="no"?>
<!DOCTYPE svg PUBLIC "-//W3C//DTD SVG 1.1//EN" "http://www.w3.org/Graphics/SVG/1.1/DTD/svg11.dtd">
<svg xmlns="http://www.w3.org/2000/svg" xmlns:xl="http://www.w3.org/1999/xlink" version="1.1" viewBox="290 58 121 119" width="121pt" height="119pt" xmlns:dc="http://purl.org/dc/elements/1.1/">
  <metadata> Produced by OmniGraffle 7.4.2 
    <dc:date>2017-08-26 10:08:30 +0000</dc:date>
  </metadata>
  <defs/>
  <g stroke="none" stroke-opacity="1" stroke-dasharray="none" fill="none" fill-opacity="1">
    <title>Canvas 1</title>
    <rect fill="white" width="120.776" height="117.7935"/>
    <g>
      <title>Layer 1</title>
      <path d="M 350.6088 58.4313 C 317.2618 58.4313 290.2208 85.4663 290.2208 118.8193 C 290.2208 145.4993 307.5238 168.1353 331.5178 176.1203 C 334.5358 176.6793 335.6438 174.8103 335.6438 173.2153 C 335.6438 171.7763 335.5878 167.0183 335.5618 161.9723 C 318.7618 165.6253 315.2168 154.8473 315.2168 154.8473 C 312.4698 147.8683 308.5118 146.0113 308.5118 146.0113 C 303.0328 142.2633 308.9248 142.3403 308.9248 142.3403 C 314.9888 142.7663 318.1818 148.5643 318.1818 148.5643 C 323.5678 157.7953 332.3088 155.1263 335.7548 153.5833 C 336.2978 149.6813 337.8618 147.0163 339.5888 145.5083 C 326.1758 143.9823 312.0758 138.8033 312.0758 115.6643 C 312.0758 109.0723 314.4348 103.6843 318.2978 99.4553 C 317.6708 97.9343 315.6038 91.7923 318.8838 83.4743 C 323.9548 81.8523 335.4938 89.6653 335.4938 89.6653 C 340.3108 88.3273 345.4768 87.6563 350.6088 87.6323 C 355.7408 87.6563 360.9108 88.3273 365.7368 89.6653 C 377.2628 81.8523 382.3268 83.4743 382.3268 83.4743 C 385.6138 91.7923 383.5468 97.9343 382.9198 99.4553 C 386.7918 103.6843 389.1338 109.0723 389.1338 115.6643 C 389.1338 138.8593 375.0068 143.9653 361.5598 145.4603 C 363.7258 147.3343 365.6558 151.0093 365.6558 156.6433 C 365.6558 164.7233 365.5868 171.2263 365.5868 173.2153 C 365.5868 174.8233 366.6728 176.7053 369.7338 176.1133 C 393.7158 168.1193 410.9968 145.4913 410.9968 118.8193 C 410.9968 85.4663 383.9598 58.4313 350.6088 58.4313 Z" fill="#151513"/>
      <path d="M 313.0932 145.1345 C 312.9602 145.4355 312.4882 145.5255 312.0582 145.3195 C 311.6192 145.1215 311.3742 144.7125 311.5162 144.4115 C 311.6462 144.1035 312.1182 144.0175 312.5562 144.2235 C 312.9942 144.4205 313.2442 144.8335 313.0932 145.1345 Z" fill="#151513"/>
      <path d="M 315.5395 147.863 C 315.2515 148.13 314.6875 148.006 314.3065 147.584 C 313.9105 147.163 313.8375 146.599 314.1295 146.329 C 314.4265 146.062 314.9725 146.187 315.3675 146.608 C 315.7635 147.034 315.8405 147.592 315.5395 147.863 Z" fill="#151513"/>
      <path d="M 317.9204 151.3405 C 317.5504 151.5985 316.9444 151.3575 316.5704 150.8205 C 316.2004 150.2825 316.2004 149.6385 316.5794 149.3805 C 316.9534 149.1225 317.5504 149.3555 317.9294 149.8875 C 318.2984 150.4335 318.2984 151.0775 317.9204 151.3405 Z" fill="#151513"/>
      <path d="M 321.1821 154.7009 C 320.8511 155.0659 320.1461 154.9679 319.6301 154.4689 C 319.1021 153.9829 318.9551 153.2919 319.2861 152.9269 C 319.6221 152.5609 320.3311 152.6639 320.8511 153.1579 C 321.3751 153.6439 321.5341 154.3399 321.1821 154.7009 Z" fill="#151513"/>
      <path d="M 325.6821 156.652 C 325.5351 157.125 324.8571 157.339 324.1731 157.138 C 323.4901 156.931 323.0431 156.378 323.1811 155.9 C 323.3231 155.424 324.0051 155.2 324.6941 155.415 C 325.3761 155.621 325.8241 156.171 325.6821 156.652 Z" fill="#151513"/>
      <path d="M 330.6245 157.0134 C 330.6415 157.5114 330.0615 157.9244 329.3435 157.9334 C 328.6215 157.9494 328.0365 157.5464 328.0285 157.0564 C 328.0285 156.5534 328.5965 156.1454 329.3175 156.1324 C 330.0355 156.1184 330.6245 156.5194 330.6245 157.0134 Z" fill="#151513"/>
      <path d="M 335.2231 156.2311 C 335.3091 156.7161 334.8101 157.2151 334.0971 157.3481 C 333.3961 157.4771 332.7471 157.1761 332.6581 156.6951 C 332.5711 156.1971 333.0781 155.6981 333.7791 155.5691 C 334.4931 155.4451 335.1321 155.7371 335.2231 156.2311 Z" fill="#151513"/>
    </g>
  </g>
</svg>
