<?xml version="1.0" encoding="UTF-8" standalone="no"?>
<svg
   xmlns:dc="http://purl.org/dc/elements/1.1/"
   xmlns:cc="http://creativecommons.org/ns#"
   xmlns:rdf="http://www.w3.org/1999/02/22-rdf-syntax-ns#"
   xmlns:svg="http://www.w3.org/2000/svg"
   xmlns="http://www.w3.org/2000/svg"
   viewBox="0 0 104.8125 36.674999"
   height="36.674999"
   width="104.8125"
   xml:space="preserve"
   version="1.1"
   id="svg2"><metadata
     id="metadata8"><rdf:RDF><cc:Work
         rdf:about=""><dc:format>image/svg+xml</dc:format><dc:type
           rdf:resource="http://purl.org/dc/dcmitype/StillImage" /><dc:title></dc:title></cc:Work></rdf:RDF></metadata><defs
     id="defs6" /><g
     transform="matrix(1.25,0,0,-1.25,0,36.675)"
     id="g10"><g
       transform="scale(0.1,0.1)"
       id="g12"><path
         id="path14"
         style="fill:#2056ae;fill-opacity:1;fill-rule:nonzero;stroke:none"
         d="m 0,4.97266 150.48,0 c 39.79,0 74.36,8.54294 98.872,30.15624 24.511,21.6016 39.539,56.5195 39.57,110.7501 -0.02,58.242 -14.043,93.613 -37.383,114.562 -23.34,20.965 -56.758,28.008 -96.637,27.997 l 0,0.011 -154.902,0 0,-61.222 131.199,0 c 19.879,0.109 33.469,-6.942 41.149,-20.586 7.703,-13.536 10.011,-32.793 10.039,-57.864 -0.028,-24.226 -2.137,-43.269 -9.668,-56.8122 -7.52,-13.625 -21.02,-20.9179 -41.117,-20.8046 l -29.891,0 0,100.3438 L 0,171.504 0,4.97266" /><path
         id="path16"
         style="fill:#2056ae;fill-opacity:1;fill-rule:nonzero;stroke:none"
         d="m 311.012,4.97266 101.707,0 0,102.83234 126.715,0 0,63.699 -126.715,0 0,55.723 126.715,0 0,61.222 -228.422,0 0,-283.47634" /><path
         id="path18"
         style="fill:#2056ae;fill-opacity:1;fill-rule:nonzero;stroke:none"
         d="M 609.473,257.668 C 579.426,233.898 560.43,198.555 560.391,150.852 560.43,99.9336 578.711,62.5 608.34,37.5 637.988,12.5117 679.258,0 725.332,0 c 43.152,0.0117188 77.246,4.35547 113.125,15 l 0,130.801 -86.426,0 0,-76.1838 -1.914,-0.7383 c -7.265,-2.7734 -16.328,-2.6562 -23.984,-2.6953 -22.285,-0.0625 -38.164,9.2539 -47.91,23.6992 -9.766,14.4262 -13.692,33.6402 -13.711,53.9262 -0.02,26.964 9.14,48.086 25.371,62.207 16.222,14.132 39.172,21.211 66.387,21.211 27.832,0 49.765,-6.258 65.371,-14.481 l 0,70.527 c -25.703,6.278 -45.262,10.125 -96.309,10.145 l -0.019,0 c -44.454,0 -85.782,-12.012 -115.84,-35.75" /></g></g></svg>