<?xml version="1.0" encoding="UTF-8" standalone="no"?>
<!-- Created with Inkscape (http://www.inkscape.org/) -->

<svg
   xmlns:dc="http://purl.org/dc/elements/1.1/"
   xmlns:cc="http://creativecommons.org/ns#"
   xmlns:rdf="http://www.w3.org/1999/02/22-rdf-syntax-ns#"
   xmlns:svg="http://www.w3.org/2000/svg"
   xmlns="http://www.w3.org/2000/svg"
   xmlns:sodipodi="http://sodipodi.sourceforge.net/DTD/sodipodi-0.dtd"
   xmlns:inkscape="http://www.inkscape.org/namespaces/inkscape"
   version="1.0"
   width="566.92938"
   height="163.61153"
   id="svg2407"
   inkscape:version="0.91 r13725"
   sodipodi:docname="LUH.svg">
  <metadata
     id="metadata10">
    <rdf:RDF>
      <cc:Work
         rdf:about="">
        <dc:format>image/svg+xml</dc:format>
        <dc:type
           rdf:resource="http://purl.org/dc/dcmitype/StillImage" />
        <dc:title></dc:title>
      </cc:Work>
    </rdf:RDF>
  </metadata>
  <sodipodi:namedview
     pagecolor="#ffffff"
     bordercolor="#666666"
     borderopacity="1"
     objecttolerance="10"
     gridtolerance="10"
     guidetolerance="10"
     inkscape:pageopacity="0"
     inkscape:pageshadow="2"
     inkscape:window-width="847"
     inkscape:window-height="480"
     id="namedview8"
     showgrid="false"
     fit-margin-top="0"
     fit-margin-left="0"
     fit-margin-right="0"
     fit-margin-bottom="0"
     inkscape:zoom="0.51464054"
     inkscape:cx="283.46038"
     inkscape:cy="81.80102"
     inkscape:window-x="0"
     inkscape:window-y="0"
     inkscape:window-maximized="0"
     inkscape:current-layer="svg2407" />
  <defs
     id="defs2409" />
  <g
     transform="translate(-321.73371,-576.84427)"
     id="layer1">
    <g
       transform="matrix(6.17402,0,0,-6.17402,-1348.03,1906.58)"
       id="g2912">
      <path
         d="m 338.0625,474.875 0,33.125 33.09375,0 0,-33.125 -33.09375,0 z m 36.5,0 0,33.125 78.28125,0 0,-33.125 -78.28125,0 z"
         transform="matrix(0.8,0,0,-0.8,0,595.276)"
         id="path285"
         style="fill:#00509b;fill-opacity:1;fill-rule:nonzero;stroke:none"
         inkscape:connector-curvature="0" />
      <path
         d="m 359.96875,478.875 c -0.0932,0.0362 -0.15624,0.15626 -0.15625,0.15625 0,0 0.004,-0.003 0,0.0625 -0.004,0.0638 0.009,0.08 0.125,0.15625 0.11625,0.0763 0.12876,0.14999 0.15625,0.375 0.0288,0.22375 -0.16749,0.30499 -0.1875,0.4375 -0.02,0.1325 0.0263,0.29249 0.1875,0.28125 0.16,-0.0125 0.23625,-0.15624 0.28125,-0.3125 0.0437,-0.15625 0.21124,-0.21751 0.34375,-0.28125 0.1325,-0.065 0.25749,-0.18376 0.25,-0.34375 -0.009,-0.16 -0.0613,-0.1 -0.40625,-0.28125 -0.345,-0.18 -0.32749,-0.21 -0.5,-0.25 -0.0431,-0.01 -0.0627,-0.0121 -0.0937,0 z m 20.625,0 0,6 3.1875,0 0,-0.71875 -2.3125,0 0,-5.28125 -0.875,0 z m 8.1875,0 0,0.875 0.9375,0 0,-0.875 -0.9375,0 z m 2.15625,0 0,4.28125 c 0,0.52125 0.0412,1.8125 1.59375,1.8125 1.19749,0 1.6875,-0.85 1.6875,-2.125 0,-1.08501 -0.26125,-2.21875 -1.40625,-2.21875 -0.66,10e-6 -0.99875,0.43 -1.09375,0.65625 l 0,-2.40625 -0.78125,0 z m 9.03125,0 0,0.875 0.9375,0 0,-0.875 -0.9375,0 z m -43.3125,0.15625 c -0.19125,-0.04 -0.43749,0.31251 -0.4375,0.3125 l -0.0312,0.0625 c -0.0575,0.0612 -0.15626,0.1875 -0.15625,0.1875 0,0 -0.01,0.15249 -0.0625,0.28125 -0.0987,0.24 -10e-4,0.35125 0.0312,0.53125 0.004,0.0937 0.0163,0.29124 0,0.53125 -0.0163,0.24125 -0.24126,0.56751 -0.46875,0.5625 -0.235,-0.005 -0.33875,0.0462 -0.40625,0.3125 -0.0437,0.17 0.006,0.27374 0.0625,0.4375 0.0362,0.1025 0.0313,0.2125 0.0312,0.28125 0,0.17625 -0.20374,0.42625 -0.25,0.65625 -0.0525,0.25375 -0.10624,0.46251 -0.21875,0.6875 -0.11125,0.225 0.0213,0.39625 0.0312,0.5625 0,0 -0.003,0.85999 0,1.3125 0.002,0.25375 0.16374,0.34126 0.28125,0.46875 0.085,0.0937 0.21876,0.1875 0.21875,0.1875 0.43125,0.1 0.51126,-0.0813 0.53125,-0.25 0.015,-0.17875 0.0763,-0.29749 0.1875,-0.375 0.26,-0.1775 -0.0625,-0.71876 -0.0625,-0.71875 0,0 -0.18626,-0.28999 -0.21875,-0.5625 -0.0325,-0.2725 0.32375,-0.37251 0.40625,-0.4375 0.30625,-0.24 0.35874,-0.35376 0.34375,-0.5625 -0.015,-0.195 0.31001,-0.95624 0.3125,-1.09375 0.004,-0.18 0.0175,-1.13875 0.0312,-1.5 0.004,-0.0813 0.0313,-0.11624 0.0312,-0.125 0,-0.12375 -0.0587,-0.24249 -0.0625,-0.34375 -0.24875,-0.36 0.16251,-0.6625 0.15625,-0.96875 -0.002,-0.17875 -0.0887,-0.39751 -0.28125,-0.4375 z m 9.1875,0.59375 c -0.14266,-10e-4 -0.2725,0.0412 -0.375,0.125 -0.37875,0.31 -0.15626,0.49999 -0.15625,0.5 0,0 0.0187,0.03 0.0312,0.0937 0.0125,0.0612 0.02,0.25001 0.0312,0.46875 0.0487,0.26375 0.0312,0.46874 0.0312,0.46875 -0.1925,0.105 -0.33374,0.17875 -0.46875,0.40625 -0.1425,0.2425 -0.16126,0.26125 -0.1875,0.4375 -0.0188,0.12 -0.0288,0.23624 -0.0312,0.34375 -0.009,0.29625 0.14375,0.31501 0.125,0.5 -0.0225,0.21125 -0.16999,0.33125 -0.21875,0.46875 -0.0325,0.21875 -0.0637,0.26251 -0.125,0.375 -0.0863,0.15875 -0.13876,0.44124 0,0.59375 0.1,0.11 0.08,0.35374 0.0625,0.625 -0.0175,0.27 0.0775,0.39375 0.125,0.4375 0.0475,0.0437 0.15875,0.02 0.1875,0.1875 0.0113,0.07 0.18125,0.36001 0.59375,0.34375 0.1,-0.004 0.21,-0.0913 0.3125,-0.1875 0.0937,-0.0875 0.17999,-0.19751 0.1875,-0.34375 0.009,-0.17875 -0.0738,-0.24624 -0.125,-0.3125 -0.0412,-0.0512 -0.11999,-0.07 -0.15625,-0.3125 -0.025,-0.16125 -0.15626,-0.31251 -0.15625,-0.3125 l 0,-1.03125 c -0.009,-0.0875 0.15626,-0.34376 0.15625,-0.34375 l 0,-0.4375 c 0.0263,-0.10375 0.105,-0.18375 0.21875,-0.28125 0.0925,-0.17625 0.08,-0.33626 0.0625,-0.5 -0.0163,-0.14375 0.075,-0.21249 0.125,-0.34375 0.0337,-0.0913 0.0312,-0.19374 0.0312,-0.40625 -10e-4,-0.23 0.03,-0.23376 0.25,-0.53125 0.0975,-0.3225 0.115,-0.7 -0.0625,-0.84375 -0.17062,-0.13813 -0.32609,-0.18609 -0.46875,-0.1875 z m 20.28125,1 c -0.52876,10e-6 -1.6875,0.19875 -1.6875,1.96875 10e-6,1.62249 0.8125,2.375 2.0625,2.375 0.45125,0 0.6925,-0.0775 1.03125,-0.15625 l 0,-0.625 c -0.18251,0.0613 -0.425,0.15625 -0.78125,0.15625 -1.12876,-10e-6 -1.53125,-1.07125 -1.53125,-1.84375 l 2.40625,0 0,-0.21875 c -10e-6,-0.97124 -0.49375,-1.65625 -1.5,-1.65625 z m 11.34375,0 c -0.84126,10e-6 -1.17375,0.6525 -1.3125,1 l 0,-0.90625 -0.78125,0 0,4.15625 0.78125,0 0,-1.78125 c 10e-6,-0.82499 0.45125,-1.6875 1.09375,-1.6875 0.56376,10e-6 0.5625,0.42375 0.5625,1.1875 l 0,2.28125 0.78125,0 0,-2.875 c 0,-0.51126 -0.17,-1.375 -1.125,-1.375 z m -8.59375,0.0937 0,4.15625 0.78125,0 0,-4.15625 -0.78125,0 z m 11.15625,0 0,4.15625 0.78125,0 0,-4.15625 -0.78125,0 z m 2,0 0,0.625 1.875,0 -2,2.90625 0,0.625 3.03125,0 0,-0.625 -2.09375,0 2,-2.9375 0,-0.59375 -2.8125,0 z m -15.9375,0.53125 c 0.59875,0 0.75,0.45875 0.75,0.71875 l -1.5625,0 c 10e-6,-0.18126 0.17125,-0.71875 0.8125,-0.71875 z m 6.5,0 c 0.65125,0 0.75,0.96375 0.75,1.5625 0,0.76374 -0.15875,1.53125 -0.84375,1.53125 -0.76375,-1e-5 -0.78125,-0.92 -0.78125,-1.5625 0,-0.56376 0.2325,-1.53125 0.875,-1.53125 z m -32.46875,0.6875 c -0.13781,-0.004 -0.21874,0.0937 -0.21875,0.0937 0,0 -0.12251,0.0987 -0.0625,0.21875 0.0575,0.115 0.0738,0.12001 0.0937,0.3125 0.02,0.19125 0.0975,0.025 0.125,0.25 0.0288,0.22375 -0.0888,0.19999 -0.125,0.3125 -0.0362,0.1125 -0.0163,0.53126 0.15625,0.5 0.1725,-0.0325 0.12124,-0.445 0.0937,-0.625 -0.0275,-0.18125 0.0712,-0.34749 0.1875,-0.5 0.11625,-0.1525 0.13501,-0.36749 -0.0937,-0.5 -0.0569,-0.0331 -0.11031,-0.0612 -0.15625,-0.0625 z m -4.09375,0.21875 0.0312,0 c 0,0.0175 0.0288,0.0675 -0.0312,0.0937 0.002,0.0225 0.006,0.09 -0.0937,0.125 0.002,-0.0113 -0.0275,-0.10376 0.0312,-0.125 0,-0.0213 0.006,-0.065 0.0625,-0.0937 z m 3.84375,2.3125 c -0.10547,0.0508 -0.0937,0.21876 -0.0937,0.21875 l 0,0.125 c -0.004,0.0638 0.0637,0.10874 0.15625,0.15625 0.0925,0.0487 0.12876,0.2 0.125,0.28125 -0.004,0.08 0.2025,0.35 0.375,0.21875 0.1725,-0.1325 -0.11626,-0.50874 -0.1875,-0.59375 -0.0725,-0.0838 0.0262,-0.34124 -0.21875,-0.40625 -0.0612,-0.0159 -0.12109,-0.0169 -0.15625,0 z m 0.0937,0.9375 c -0.245,-0.0362 -0.18751,0.34374 -0.1875,0.34375 0,0 -0.004,0.37125 0,0.53125 0.004,0.16 0.20001,0.19124 0.3125,0.1875 0.11125,-0.004 0.095,0.10374 0.0625,0.15625 -0.0325,0.0525 -0.0462,0.0575 -0.0625,0.28125 -0.015,0.225 -0.20499,0.33124 -0.28125,0.375 -0.0763,0.0437 -0.0313,0.43624 -0.0312,0.65625 0,0.22 -0.14876,0.28251 -0.15625,0.40625 -0.009,0.125 0.13251,0.2225 0.1875,0.21875 0.0562,-0.004 0.14125,-0.16499 0.125,-0.25 -0.0163,-0.0838 0.16875,-0.33374 0.3125,-0.4375 0.14375,-0.10375 0.11875,-0.30626 0.0625,-0.40625 -0.0562,-0.10125 -0.0938,-0.0587 -0.0937,-0.21875 0,-0.16 0.15249,-0.22624 0.15625,-0.34375 0.004,-0.11625 0.14375,-0.22251 0.15625,-0.375 0.0113,-0.1525 -0.21376,-0.31874 -0.28125,-0.375 -0.0688,-0.0562 0.0312,-0.1575 -0.0937,-0.28125 -0.12375,-0.125 -0.0863,-0.11376 -0.0937,-0.28125 -0.009,-0.16875 -0.0938,-0.18749 -0.0937,-0.1875 z m 6.9375,2.3125 c -0.06,0.0238 -0.17499,0.0275 -0.25,0.0312 -0.16875,0.009 -0.37874,0.10125 -0.6875,0.125 -0.30875,0.025 -0.30375,0.08 -0.4375,0.15625 -0.13625,0.075 -0.2675,0.14876 -0.5,0.15625 -0.2325,0.009 -0.12251,0.0975 -0.4375,0.125 -0.32625,0.03 -0.64875,0.40749 -0.71875,0.53125 -0.0838,0.15125 -0.015,0.4725 -0.0625,0.5625 -0.0713,0.1325 -0.085,0.235 -0.0937,0.375 -0.007,0.14 0.0788,0.22999 0.125,0.375 0.0537,0.175 0.0875,0.25499 0.1875,0.34375 0.1,0.0875 0.07,0.0738 0.0937,0.375 0.025,0.3 0.21875,0.37501 0.21875,0.375 0,0 0.28749,-0.23376 0.3125,-0.375 0.009,-0.055 0.25001,-0.31251 0.25,-0.3125 -0.0763,-0.13625 -0.23124,-0.48999 -0.0625,-0.59375 0.16875,-0.10375 0.0937,-0.37501 0.0937,-0.375 0,0 -0.0325,-0.10124 0,-0.28125 0.0312,-0.18125 0.31375,-0.20375 0.40625,-0.21875 0.0925,-0.0163 0.57751,-0.12499 0.75,-0.125 0.17125,0 0.15375,0.2425 0.15625,0.3125 0.002,0.125 0.0462,0.34501 0.0625,0.59375 0.015,0.24875 -0.1975,0.20501 -0.375,0.28125 -0.17625,0.0763 -0.11251,0.30624 -0.15625,0.40625 -0.0225,0.0512 -0.18,0.09 -0.3125,0.0625 -0.1325,-0.0288 -0.0675,0.5825 -0.0625,0.71875 0.004,0.0962 -0.0788,0.0888 -0.21875,0.0937 -0.14,0.004 -0.15624,0.125 -0.15625,0.125 0,0 -0.0888,0.31124 -0.125,0.375 -0.0337,0.0575 -0.2475,0.495 -0.28125,0.53125 -0.0863,0.0962 -0.5275,0.44375 -0.53125,0.5 -0.004,0.0562 -0.33626,0.44125 -0.5,0.4375 -0.135,-0.002 -0.28249,0.52249 -0.375,0.53125 -0.26,0.025 -0.21876,0.21875 -0.21875,0.21875 0,0 -0.01,0.28249 0.21875,0.21875 0.22875,-0.065 0.34375,-0.0312 0.34375,-0.0312 0,0 0.30749,0.12125 0.625,0.125 0.27,0.002 0.59374,0.125 0.59375,0.125 0,0 0.35751,0.10001 0.46875,0.0312 0.0537,-0.0325 0.46501,-0.0125 0.84375,-0.0312 0.18375,0.04 0.56875,-0.0875 0.65625,-0.0937 0.2,-0.0163 0.16501,-0.0937 0.25,-0.0937 0.0838,0 0.14875,0.0813 0.28125,0.0937 0.1325,0.0113 0.22251,-0.12875 0.25,-0.25 0.0288,-0.12 0.59499,-0.19499 0.6875,-0.1875 0.0925,0.009 0.24125,-0.004 0.28125,-0.15625 0.04,-0.1525 -0.10626,-0.21749 -0.21875,-0.3125 -0.11125,-0.0962 -0.10499,-0.17499 -0.125,-0.34375 -0.02,-0.16875 -0.18124,-0.18001 -0.25,-0.1875 -0.0675,-0.009 -0.37501,0.0562 -0.40625,0.125 -0.0125,0.0275 -0.0412,0.0825 -0.0937,0.0937 -0.0788,0.0163 -0.16751,-0.0312 -0.1875,-0.0625 -0.0325,-0.0525 -0.60375,0.11374 -0.875,0.0625 -0.01,0.0238 -0.63375,0.0362 -0.5625,0.0937 0.0975,0.0775 -0.0275,0.34 -0.15625,0.34375 -0.1275,0.005 -0.24626,-0.10624 -0.25,-0.25 -0.004,-0.145 -0.0775,-0.0788 -0.15625,-0.125 -0.15125,-0.09 -0.0475,-0.23999 0,-0.34375 0.0475,-0.10375 0.22874,-0.02 0.28125,-0.125 0.0425,-0.0875 0.075,-0.13749 0.0312,-0.15625 -0.04,-0.0175 -0.0713,-0.004 -0.125,-0.0312 0,0 0.10624,-0.0412 0.1875,-0.125 0.0937,-0.0962 0.15001,-0.25126 0.25,-0.34375 0.13875,-0.12625 0.35999,-0.5725 0.5,-0.6875 0.1675,-0.13875 0.32624,-0.55875 0.375,-0.59375 0.0688,-0.0475 0.0775,-0.14625 0.0937,-0.40625 0.0163,-0.26125 0.0813,-0.32251 0.28125,-0.375 0.20125,-0.0525 0.13249,-0.20874 0.15625,-0.4375 0.01,-0.0937 0.055,-0.17375 0.0937,-0.21875 0.0575,-0.065 0.0625,-0.4375 0.0625,-0.4375 0.13125,-0.0825 0.0662,-0.27876 0.0625,-0.375 -0.004,-0.0962 -0.15499,-0.14374 -0.21875,-0.375 -0.0238,-0.0825 -0.0463,-0.24124 -0.0625,-0.40625 -0.0163,-0.16375 -0.22126,-0.21251 -0.28125,-0.1875 z m 13.625,0.78125 0,4.21875 c 10e-6,1.28376 0.86875,1.84375 2.03125,1.84375 1.17249,-1e-5 2.03125,-0.56 2.03125,-1.84375 l 0,-4.21875 -0.875,0 0,4.03125 c 0,0.44249 -0.007,1.34375 -1.1875,1.34375 -1.14626,0 -1.125,-0.90125 -1.125,-1.34375 l 0,-4.03125 -0.875,0 z m 9.65625,0 0,0.875 0.9375,0 0,-0.875 -0.9375,0 z m 16.75,0 0,0.875 0.9375,0 0,-0.875 -0.9375,0 z m 5.46875,0.0625 0,0.96875 1.0625,0 0,-0.96875 -1.0625,0 z m 1.8125,0 0,0.96875 1.0625,0 0,-0.96875 -1.0625,0 z m -48.4375,0.15625 c 0.0175,-0.002 0.0962,-0.015 0.0937,0 -0.001,0.0163 -1e-5,0.04 -0.0937,0.0937 0,0 -0.0175,0.01 0,-0.0937 z m 44.59375,0.1875 -0.78125,0.46875 0,0.96875 -0.75,0 0,0.625 0.75,0 0,2.59375 c 10e-6,0.565 0.2525,1 1.25,1 0.20874,-1e-5 0.39375,-0.0188 0.59375,-0.0625 l 0,-0.59375 c -0.1125,0.035 -0.2675,0.0625 -0.40625,0.0625 -0.60749,0 -0.65625,-0.43875 -0.65625,-0.8125 l 0,-2.1875 1.15625,0 0,-0.625 -1.15625,0 0,-1.4375 z m 7.3125,0 -0.78125,0.46875 0,0.96875 -0.71875,0 0,0.625 0.71875,0 0,2.59375 c -1e-5,0.565 0.2525,1 1.25,1 0.20875,-1e-5 0.425,-0.0188 0.625,-0.0625 l 0,-0.59375 c -0.11249,0.035 -0.2675,0.0625 -0.40625,0.0625 -0.60751,0 -0.6875,-0.43875 -0.6875,-0.8125 l 0,-2.1875 1.15625,0 0,-0.625 -1.15625,0 0,-1.4375 z M 364.71875,489 c 0.0298,-3.1e-4 0.0619,0.009 0.0625,0.0312 10e-4,0.0437 0.004,0.0863 -0.0937,0.125 -0.0113,0.0275 -0.0488,0.0138 -0.125,0 l -0.0312,-0.0312 c 0.0113,-0.0312 0.055,0.009 0.125,-0.0937 0.005,6.3e-4 0.0327,-0.0309 0.0625,-0.0312 z m -5.09375,0.15625 c -0.10875,-0.0288 -0.125,0.18751 -0.125,0.1875 0,0 0.0162,0.10375 0.125,0.15625 0.1075,0.0512 0.13875,0.06 0.21875,-0.0312 0.08,-0.0925 -0.007,-0.21751 -0.0312,-0.25 -0.0238,-0.0312 -0.08,-0.035 -0.1875,-0.0625 z m -2.59375,0.0937 c -0.21445,0.0362 -0.21874,0.15625 -0.21875,0.15625 0,0 0.02,0.13374 0.0625,0.28125 0.0113,0.035 0.18,0.2675 0.25,0.28125 0.28125,0.055 0.37501,0.22499 0.375,0.4375 0,0.2125 -0.12499,0.24374 -0.21875,0.34375 -0.002,0.0138 -0.0313,0.65626 -0.0312,0.65625 -0.22625,0.30625 -0.14624,0.52375 -0.15625,0.90625 -0.0113,0.38125 -0.41249,0.36375 -0.71875,0.375 -0.15125,0.005 -0.36749,0.1525 -0.5625,0.28125 -0.195,0.13125 -0.38874,0.27375 -0.65625,0.15625 -0.1875,-0.0825 -0.29874,-0.32625 -0.375,-0.53125 -0.0163,-0.1225 -0.0113,-0.25876 0,-0.375 0.035,-0.34625 0.1875,-0.5625 0.1875,-0.5625 0,0 0.20499,-0.45375 0.34375,-0.5 0.25625,-0.0863 0.40625,-0.31251 0.40625,-0.3125 0.47,-0.1475 0.63499,-0.52375 0.59375,-0.875 -0.0288,-0.24 -0.15501,-0.45751 -0.25,-0.53125 -0.18625,-0.1425 -0.89875,0.28625 -1.15625,0.40625 -0.1675,0.0562 -0.28875,0.07 -0.375,0.28125 -0.1125,0.28 -0.31251,0.32749 -0.34375,0.53125 -0.0525,0.3475 -0.32751,0.51126 -0.46875,0.65625 -0.1325,0.1375 -0.20999,0.24249 -0.0625,0.5625 0.1475,0.3175 -0.1775,0.83249 -0.28125,1 -0.10375,0.1675 -0.2625,0.53251 0.5625,1.21875 0.825,0.6875 1.07375,0.63626 1.71875,0.59375 0.645,-0.0425 1.235,-1.04 1.5,-1.125 0.265,-0.085 0.42749,-0.3075 0.40625,-0.6875 -0.0213,-0.38 0.30125,-0.53501 0.34375,-0.875 0.0425,-0.33875 -0.14501,-0.44626 -0.15625,-0.5625 -0.01,-0.11625 0.0413,-0.13249 0.0937,-0.28125 0.0537,-0.14875 10e-4,-0.37251 -0.0312,-0.53125 -0.0312,-0.16 -0.0225,-0.13125 0.0625,-0.34375 0.085,-0.21125 0,-0.53125 0,-0.53125 0,0 -0.025,-0.43624 -0.53125,-0.5 -0.12687,-0.0156 -0.24102,-0.0121 -0.3125,0 z m 9.65625,0.25 c 0.125,0 0.21876,0.0937 0.21875,0.21875 0,0.125 -0.0938,0.25001 -0.21875,0.25 -0.125,0 -0.21875,-0.12501 -0.21875,-0.25 0,-0.125 0.0937,-0.21876 0.21875,-0.21875 z m -18.25,0.0625 c -0.31307,0.062 -0.31251,0.46875 -0.3125,0.46875 0,0 -0.15625,0.24376 -0.0937,0.375 0.0638,0.135 0.0625,0.11874 0.0625,0.375 0,0.25625 0.0237,0.15625 0.0625,0.25 0.0387,0.0925 -10e-6,0.15625 0,0.15625 -0.14375,0 -0.24376,0.0975 -0.25,0.25 -0.12875,0.0288 -0.125,0.25001 -0.125,0.25 0,0 -0.015,0.61001 0,0.75 0.0163,0.14 -0.12499,0.0788 -0.125,0.28125 0,0.2025 0.0937,0.24999 0.0937,0.25 l 0,0.40625 c 0,0.0788 0.0437,0.13249 0.0625,0.1875 0.0337,0.0962 0.0663,0.18751 0.125,0.1875 0.0937,0 0.0625,0.12499 0.0625,0.125 0,0 -0.004,0.27499 0,0.5 0.006,0.35 0.1975,0.59374 0.5625,0.59375 0.36625,0 0.28126,-0.63374 0.28125,-0.75 0,-0.11625 0.17625,-0.18374 0.15625,-0.34375 l 0,-0.8125 c 0,0 0.0375,-0.46876 -0.15625,-0.46875 -0.195,0 -0.34375,0.21875 -0.34375,0.21875 l -0.15625,0 c 0,0 -0.0225,-0.4225 0.15625,-0.4375 0.17875,-0.0163 0.30499,-0.0163 0.34375,-0.25 0.0387,-0.2325 -0.0637,-0.42375 -0.21875,-0.65625 -0.15625,-0.2325 -0.0312,-0.34376 -0.0312,-0.34375 0.35125,-0.225 0.37499,-0.56249 0.375,-0.5625 0,0 0.0675,-0.34876 -0.125,-0.6875 -0.0537,-0.17 -0.10749,-0.295 -0.25,-0.3125 -0.0577,-0.007 -0.11153,-0.009 -0.15625,0 z m 11.28125,0.34375 c -0.2925,0.0763 -0.3125,0.37499 -0.3125,0.375 l -0.0312,0.0625 c 0,0.0275 0.0525,0.0663 0.25,0.0937 0.19625,0.0288 -0.0913,0.36374 0.125,0.34375 0.21625,-0.02 0.10624,0.1625 0.21875,0.0937 0.11125,-0.0688 0.125,-0.25 0.125,-0.25 0,0 -0.0813,-0.79501 -0.375,-0.71875 z M 387.875,490.25 c -0.84124,0 -1.17375,0.62125 -1.3125,0.96875 l -0.0312,-0.875 -0.78125,0 0,4.125 0.78125,0 0,-1.75 c -10e-6,-0.825 0.45125,-1.6875 1.09375,-1.6875 0.56374,0 0.5625,0.42375 0.5625,1.1875 l 0,2.25 0.78125,0 0,-2.84375 c -10e-6,-0.51124 -0.13875,-1.375 -1.09375,-1.375 z m 10.0625,0 c -0.52876,0 -1.6875,0.19875 -1.6875,1.96875 10e-6,1.62251 0.7825,2.34375 2.03125,2.34375 0.45125,-10e-6 0.69375,-0.0462 1.03125,-0.125 l 0,-0.625 c -0.1825,0.06 -0.425,0.15625 -0.78125,0.15625 -1.1275,0 -1.5,-1.07125 -1.5,-1.84375 l 2.375,0 0,-0.21875 C 399.40624,490.935 398.945,490.25 397.9375,490.25 Z m 4.6875,0 c -0.815,0 -1.1375,0.6075 -1.25,0.9375 l -0.0312,-0.84375 -0.78125,0 0,4.125 0.78125,0 0,-1.75 c 1e-5,-1.2675 0.57875,-1.625 1.28125,-1.625 l 0,-0.84375 z m 2.15625,0 c -0.85876,0 -1.46875,0.41 -1.46875,1.15625 -10e-6,0.6075 0.44,0.89125 0.8125,1.125 l 0.40625,0.25 c 0.27751,0.18126 0.65625,0.34375 0.65625,0.65625 10e-6,0.425 -0.47125,0.53125 -0.84375,0.53125 -0.43374,0 -0.95375,-0.215 -1.03125,-0.25 l 0,0.6875 c 0.18249,0.0512 0.53,0.15625 1.09375,0.15625 0.92875,-10e-6 1.5625,-0.3825 1.5625,-1.25 10e-6,-0.68626 -0.53375,-0.95 -0.96875,-1.21875 l -0.3125,-0.1875 c -0.26999,-0.165 -0.59375,-0.30625 -0.59375,-0.59375 -10e-6,-0.25999 0.3175,-0.4375 0.65625,-0.4375 0.45125,-10e-6 0.85625,0.16625 0.96875,0.21875 l 0,-0.6875 c -0.20001,-0.0337 -0.52125,-0.15625 -0.9375,-0.15625 z m 9.125,0 c -1.15376,0 -1.5625,0.59125 -1.5625,1.25 l 0.8125,0 c -10e-6,-0.32999 0.22,-0.625 0.6875,-0.625 0.29624,-10e-6 0.55625,0.10125 0.625,0.5 l 0,0.75 c -1.04999,-10e-6 -2.25,0.25 -2.25,1.34375 -10e-6,0.64251 0.385,1.09375 1.15625,1.09375 0.63375,-10e-6 0.95875,-0.36875 1.0625,-0.59375 l 0.0312,0.5 0.78125,0 0,-2.8125 c 10e-6,-0.37251 0.01,-1.40625 -1.34375,-1.40625 z m -23.65625,0.0937 0,4.125 0.78125,0 0,-4.125 -0.78125,0 z m 1.75,0 1.5625,4.125 0.78125,0 1.4375,-4.125 -0.875,0 -0.96875,3 -1.09375,-3 -0.84375,0 z m 15,0 0,4.125 0.78125,0 0,-4.125 -0.78125,0 z m -9.34375,0.53125 c 0.0665,-0.0153 0.13844,0 0.21875,0 0.59875,-1e-5 0.75,0.4575 0.75,0.71875 l -1.5625,0 c 10e-6,-0.15968 0.12839,-0.61146 0.59375,-0.71875 z m -31.84375,0.8125 c 0.045,0.002 0.0487,-0.009 0.0937,0.0625 0.005,0.0188 0.0112,0.15999 -0.0625,0.125 -0.005,-0.0263 -0.0188,-0.05 -0.0625,-0.0937 0,0 -0.0125,-0.0962 0.0312,-0.0937 z m -6.21875,0.125 c -0.1025,0.0238 -0.14124,0.11751 -0.1875,0.21875 -0.0925,0.115 -0.13499,0.15624 -0.125,0.3125 0,0 0.0113,0.14 0.125,0.21875 0.1025,0.07 0.16876,0.22 0.15625,0.34375 -0.0125,0.125 -0.15375,0.1725 -0.21875,0.3125 -0.0638,0.14 -0.15251,0.3275 -0.25,0.46875 -0.1125,0.165 -0.0825,0.23374 -0.0937,0.4375 -0.0113,0.2025 -0.004,0.43876 0,0.53125 0.007,0.18375 0.02,0.15874 0.125,0.25 0.10375,0.0925 0.0313,0.34376 0.0312,0.34375 0,0 -0.0187,0.52375 -0.0312,0.8125 -0.0113,0.28875 0.0612,0.25126 0.15625,0.375 0.0975,0.125 0.19624,0.17251 0.3125,0.125 0.11625,-0.0487 0.0962,-0.30999 0.0312,-0.40625 -0.0638,-0.0962 -0.06,-0.67499 -0.0312,-1 0.0275,-0.325 0.0475,-0.19375 0.15625,-0.40625 0.1075,-0.2125 -0.0137,-0.59375 -0.0937,-0.71875 -0.0825,-0.13125 -0.0937,-0.21875 -0.0937,-0.21875 0.12875,-0.14875 0.12499,-0.53124 0.125,-0.53125 0.21125,-0.16625 0.18749,-0.3125 0.1875,-0.3125 0.02,-0.5525 0.15374,-0.0488 0.0937,-0.59375 -0.0213,-0.1875 -0.16501,-0.185 -0.1875,-0.375 -0.0813,-0.22 -0.18751,-0.18749 -0.1875,-0.1875 z m 54.71875,0.8125 0.15625,0 0,0.25 c 10e-6,0.48626 -0.4,1.09375 -0.9375,1.09375 -0.23499,0 -0.46875,-0.21 -0.46875,-0.53125 -10e-6,-0.52875 0.63375,-0.8125 1.25,-0.8125 z m -48.625,4.09375 c -0.215,0.0188 -0.31626,0.16375 -0.3125,0.25 0.004,0.0875 -0.52875,0.65124 -0.625,0.6875 -0.0175,0.006 -0.13126,0.12376 -0.1875,0.1875 -0.1075,0.1225 -0.5275,0.36999 -0.5625,0.5625 -0.01,0.0575 -0.18751,0.62499 -0.1875,0.625 -0.0175,0.1175 -0.3975,0.60999 -0.46875,0.71875 -0.06,0.0925 -0.18749,0.52001 -0.4375,0.5625 -0.24875,0.0412 -0.39625,0.24375 -0.46875,0.3125 -0.0713,0.0675 -0.025,0.49876 -0.21875,0.6875 -0.14375,0.14 -0.12499,0.27249 -0.125,0.46875 0,0.19625 0.12625,0.34376 0.28125,0.34375 0.155,0 0.225,-0.13375 0.3125,-0.15625 0.0863,-0.0225 0.1875,0.22126 0.21875,0.3125 0.03,0.09 0.56374,-0.0575 0.6875,-0.125 0.125,-0.0675 0.45749,-0.15251 0.5625,-0.15625 0.065,-0.002 0.22375,0.0138 0.28125,0.0625 0.1,0.085 0.15249,0.31751 0.3125,0.40625 0.135,0.075 0.12124,0.0963 0.125,0.1875 0.004,0.09 -0.20626,0.0312 -0.28125,0.0312 -0.0763,0 -0.10876,0.395 -0.15625,0.5 -0.0312,0.0688 -0.19,0.33624 -0.28125,0.34375 -0.09,0.007 -0.0663,0.55875 -0.0625,0.5625 0.10125,0.0813 0.59501,0.57376 0.75,0.5625 0.15375,-0.0113 0.33125,0.22999 0.4375,0.21875 0.105,-0.0113 0.0937,-0.12499 0.0937,-0.125 0,0 -0.002,-0.45501 0.0312,-0.53125 0.035,-0.075 0.125,-0.25125 0.125,-0.375 0,-0.125 0.095,-0.18125 0.125,-0.25 0.03,-0.0675 0.004,-0.86626 0,-1.0625 -0.004,-0.19625 0.16,-0.29751 0.15625,-0.40625 -0.004,-0.11 0.21,-0.14875 0.28125,-0.0937 0.0775,0.0587 0.0775,0.105 0.125,0.15625 0.10875,-0.01 0.32375,0.01 0.40625,-0.0312 0.11125,-0.0562 0.67375,-0.0762 0.71875,-0.15625 0.045,-0.0788 0.0187,-0.0788 0.21875,-0.0937 0.20125,-0.015 0.22125,-0.73251 0.1875,-0.875 -0.0325,-0.14375 -0.44124,-0.0937 -0.53125,-0.0937 -0.0913,0 -0.10749,0.0675 -0.15625,0.0937 -0.05,0.0263 0.0738,0.24625 -0.0625,0.25 -0.135,0.004 -0.0975,-0.0625 -0.0937,-0.15625 0.004,-0.095 -0.0325,-0.13874 -0.0937,-0.1875 -0.06,-0.0487 -0.23875,0.001 -0.25,0.0312 -0.0113,0.03 -0.0788,0.0663 -0.21875,0.0625 -0.14,-0.004 -0.0862,-0.0962 -0.0937,-0.15625 -0.007,-0.0612 0.0275,-0.3075 0.125,-0.375 0.0987,-0.0688 0.004,-0.34374 0.0312,-0.5625 0.0263,-0.21875 0.0763,-0.23499 0.125,-0.375 0.0487,-0.14 0.0612,-0.23999 0.125,-0.28125 0.125,-0.08 0.15626,-0.375 0.15625,-0.375 0,0 0.045,-0.35751 -0.0312,-0.40625 -0.075,-0.05 -0.0937,-0.07 -0.0937,-0.15625 0,-0.0875 0.0738,-0.0575 0.0625,-0.25 -0.0113,-0.1925 -0.24624,-0.1725 -0.34375,-0.1875 -0.0987,-0.015 -0.10375,-0.0775 -0.28125,-0.1875 -0.11375,-0.07 -0.20124,-0.35124 -0.125,-0.40625 0.17375,-0.12625 0.26751,-0.41999 0.1875,-0.46875 -0.07,-0.045 -0.13125,-0.0425 -0.21875,-0.0625 -0.0888,-0.02 -0.17375,-0.0725 -0.28125,-0.0625 z m -6.3125,0.15625 c -0.18375,0.0562 -0.18751,0.28125 -0.1875,0.28125 l 0.0312,0.0625 c 0.0725,0.0275 0.0462,0.21625 0.1875,0.1875 0.14,-0.0275 0.20999,-0.22625 0.25,-0.375 0.04,-0.14875 -0.0962,-0.21249 -0.28125,-0.15625 z m 6.21875,0.875 c 0.0397,0.0119 0.055,0.0619 0.0625,0.15625 0.015,0.18875 -0.0275,0.13751 -0.0312,0.40625 -0.004,0.2675 -0.005,0.87376 0.0625,0.9375 0.0675,0.065 -0.0175,0.59126 -0.0625,0.625 -0.0462,0.0337 -0.30124,0.33 -0.3125,0.5 -0.0113,0.17 -0.03,0.57 -0.21875,0.65625 -0.18875,0.0863 -0.10625,0.09 -0.25,0.0937 -0.1425,0.004 -0.12125,-0.05 -0.34375,-0.0312 -0.2225,0.0188 -0.21999,-0.1525 -0.5,-0.15625 -0.27875,-0.004 -0.17751,0.0738 -0.3125,0.0625 -0.13625,-0.0125 -0.11751,-0.22625 -0.0312,-0.21875 0.0875,0.007 0.28124,-0.33251 0.375,-0.375 0.095,-0.0412 0.27749,-0.605 0.40625,-0.6875 0.1275,-0.0825 0.43749,-0.825 0.4375,-0.96875 0,-0.14375 -0.0138,-0.28876 0.0312,-0.3125 0.045,-0.0225 0.0875,-0.055 0.125,-0.15625 0.0387,-0.1025 0.0937,-0.18751 0.0937,-0.1875 0,0 0.1,-0.0837 0.1875,-0.125 0.0863,-0.0412 0.0413,-0.17624 0.125,-0.1875 0.0412,-0.006 0.11656,-0.0431 0.15625,-0.0312 z m 15,0.375 0,5.96875 0.875,0 0,-2.75 2.34375,0 0,2.75 0.875,0 0,-5.96875 -0.875,0 0,2.5 -2.34375,0 0,-2.5 -0.875,0 z m -21.5625,0.40625 c -0.0548,0.0558 -0.0312,0.2038 -0.0312,0.2188 0,0 0.0312,0.065 0.0625,0.125 0.0325,0.06 0.19001,0.17374 0.0625,0.25 -0.12875,0.0763 -0.12001,0.12749 -0.125,0.1875 -0.004,0.06 -0.04,0.19001 -0.15625,0.21875 -0.11625,0.0275 -0.125,0.17499 -0.0937,0.21875 0.0325,0.0437 0.0825,0.1175 0.0937,0.28125 0.0125,0.165 0.06,0.25875 0.15625,0.25 0.0962,-0.007 0.16001,-0.23249 0.15625,-0.4375 -0.004,-0.205 0.13124,-0.26626 0.21875,-0.40625 0.0888,-0.14125 0.01,-0.34125 -0.0625,-0.4375 -0.0725,-0.0962 -0.015,-0.0487 -0.0312,-0.25 -0.0163,-0.2 -0.0238,-0.19874 -0.15625,-0.21875 -0.0331,-0.005 -0.0755,-0.0186 -0.0937,0 z m -3.0625,0.0937 c -0.085,0.0102 -0.17188,0.0375 -0.21875,0.0625 -0.20125,0.1075 -0.005,0.34626 -0.375,0.375 -0.36625,0.0275 -0.17625,-0.14124 -0.46875,-0.125 -0.25875,0.0138 -0.26249,0.0962 -0.40625,0.3125 -0.14375,0.2175 -0.50126,0.29876 -0.75,0.3125 -0.2125,0.0125 -0.44875,0.315 -0.5625,0.4375 -0.0788,0.0838 -0.21749,0.35751 -0.25,0.5625 -0.025,0.155 -0.03,0.31376 -0.0312,0.34375 -10e-4,0.0175 -0.008,0.0462 0,0.125 0.0213,0.215 0.15624,0.71876 0.15625,0.71875 l 0,0.3125 c -0.0937,0.0337 -0.25374,0.14624 -0.28125,0.28125 -0.0138,0.0638 -0.025,0.14375 -0.0312,0.21875 -0.0113,0.13875 0.005,0.34999 0.0312,0.40625 0.0288,0.0638 0.15125,0.22249 0.21875,0.40625 0.0725,0.16 0.25501,0.16499 0.46875,0.15625 0.40875,-0.0163 0.55251,0.32626 0.625,0.40625 0.0725,0.08 0.155,0.11875 0.21875,0.0312 0.065,-0.0888 0.17501,-0.10876 0.375,-0.125 0.2,-0.015 0.32,-0.0325 0.40625,-0.28125 0.0838,-0.24125 0.34376,-0.34375 0.34375,-0.34375 0,0 0.49501,-0.10376 0.71875,-0.59375 0.0913,-0.19875 0.175,-0.27501 0.21875,-0.40625 0.0213,-0.0962 0.10124,-0.11001 0.0937,-0.21875 -0.0362,-0.50375 0.15625,-0.6875 0.15625,-0.6875 l 0,-1.03125 c 0.04,-0.1225 0.07,-0.23124 0.0937,-0.34375 0.125,-0.185 0.0937,-0.46876 0.0937,-0.46875 0,0 -0.0362,-0.36249 0,-0.375 0.0725,-0.0238 0.10001,-0.0738 0.0937,-0.21875 -0.004,-0.11375 -0.11876,-0.10999 -0.34375,-0.0937 -0.22375,0.015 -0.17251,-0.11375 -0.375,-0.15625 -0.0619,-0.0131 -0.13375,-0.0102 -0.21875,0 z m -12.75,0.125 c -0.08,-0.003 -0.14125,0.0369 -0.15625,0.0937 -0.03,0.11375 -0.21875,0.28126 -0.21875,0.28125 0,0 -0.0813,0.0962 -0.15625,0.1875 -0.0763,0.0913 0.0688,0.31376 -0.0937,0.5 -0.13625,0.15625 -0.04,0.4325 -0.0937,0.78125 -0.0525,0.35 -0.12,0.29126 0.0312,0.6875 0.1525,0.395 0.12751,0.45 -0.0625,0.875 -0.19,0.42625 -0.27375,0.63875 -0.25,0.71875 0.025,0.0813 0.0775,0.13875 0.0937,0.3125 0.0188,0.20125 -10e-6,0.44374 0,0.65625 0,0.395 -0.01,0.52874 0.28125,0.78125 0.05,0.0437 0.1425,0.009 0.21875,0.0312 0.14375,0.0437 0.28125,0.12499 0.28125,0.125 0.555,-0.0987 1.245,-0.90875 1.25,-1.15625 0.009,-0.3725 -0.34249,-0.37501 -0.59375,-0.375 -0.25125,0 -0.28251,0.025 -0.34375,-0.25 -0.0612,-0.2725 0.18125,-0.46624 0.25,-0.625 0.0675,-0.16 -0.0887,-0.29874 -0.21875,-0.34375 -0.12875,-0.0462 -0.0625,-0.28125 -0.0625,-0.28125 0,0 0.22499,-0.31001 0.1875,-0.8125 -0.0387,-0.50125 0.11876,-0.58624 0.1875,-0.59375 0.0688,-0.009 0.21251,-0.5675 0,-0.71875 -0.2975,-0.20875 -0.32875,-0.58375 -0.34375,-0.75 -0.007,-0.0838 -0.1075,-0.12203 -0.1875,-0.125 z m 5.0625,0.4375 c -0.35,0 -1.34501,0.35251 -1.40625,0.65625 -0.06,0.30375 -0.0788,0.39249 -0.375,0.46875 -0.2975,0.075 -0.28124,0.43749 -0.28125,0.4375 l -0.0625,0.15625 c -0.0913,0.0763 -0.0862,0.14624 -0.0937,0.375 -0.007,0.2275 -0.0937,0.24999 -0.0937,0.25 -0.009,0.1925 -0.025,0.38875 -0.0625,0.53125 -0.0288,0.115 -0.0975,0.2075 -0.125,0.25 -0.0312,0.05 -0.005,0.60251 0.0625,0.625 0.0688,0.0238 0.11126,0.12999 0.15625,0.34375 0.0462,0.2125 0.21875,0.24999 0.21875,0.25 0,0 0.26999,0.02 0.40625,0.21875 0.1375,0.1975 0.455,0.16376 0.8125,0.15625 0.35625,-0.007 0.45625,-0.085 0.5625,-0.3125 0.10625,-0.2275 0.32249,-0.19875 0.6875,-0.1875 0.28375,0.009 0.47874,-0.185 0.65625,-0.5625 0.0375,-0.0825 -0.006,-0.115 0.0625,-0.21875 0.12125,-0.18625 0.3175,-0.23749 0.40625,-0.40625 0,0 -0.0425,-0.64251 -0.0312,-0.65625 0.12375,-0.1575 0.20626,-0.70625 0.3125,-0.8125 0.10625,-0.10625 0.18501,-0.50126 0.0937,-0.5625 -0.0913,-0.0612 -0.075,-0.44126 -0.0312,-0.5 0.105,-0.14125 0.11499,-0.40749 -0.25,-0.46875 -0.365,-0.06 -0.56749,0.22625 -0.78125,0.21875 -0.2125,-0.007 -0.36749,-0.25 -0.84375,-0.25 z m -0.3125,0.65625 c 0.14332,-0.0456 0.31813,-0.0322 0.40625,0.0625 0.19,0.20875 0.0813,0.17125 0.40625,0.34375 0.325,0.1725 0.29249,0.15624 0.28125,0.46875 -0.0125,0.31375 0.0837,1.135 -0.5,1.53125 -0.3725,0.2525 -0.59499,0.31624 -0.9375,0.1875 -0.27875,-0.105 -0.47125,-0.13876 -0.53125,-0.21875 -0.06,-0.08 -0.39999,-0.26749 -0.34375,-0.5 0.0562,-0.2325 0.21124,-0.145 0.21875,-0.28125 0.009,-0.13625 0.0113,-0.42749 0.1875,-0.5 0.17625,-0.0713 0.15624,-0.0937 0.15625,-0.0937 0,0 0.3625,-0.13125 0.4375,-0.3125 0.0763,-0.18 -0.0275,-0.50876 0.0937,-0.625 0.03,-0.0291 0.0772,-0.0473 0.125,-0.0625 z m 39.5625,0.0312 c -1.15374,-10e-6 -1.5625,0.59 -1.5625,1.25 l 0.8125,0 c 10e-6,-0.33 0.21875,-0.65625 0.6875,-0.65625 0.29501,1e-5 0.55625,0.13125 0.625,0.53125 l 0,0.71875 c -1.04875,1e-5 -2.25,0.28125 -2.25,1.375 10e-6,0.6425 0.38375,1.09375 1.15625,1.09375 0.63374,-10e-6 0.9575,-0.3675 1.0625,-0.59375 l 0.0312,0.5 0.78125,0 0,-2.84375 c 0,-0.37374 0.01,-1.375 -1.34375,-1.375 z m 4.78125,0 c -0.84126,-10e-6 -1.17375,0.62125 -1.3125,0.96875 l 0,-0.875 -0.78125,0 0,4.125 0.78125,0 0,-1.75 c 10e-6,-0.82501 0.4525,-1.6875 1.09375,-1.6875 0.56501,-10e-6 0.5625,0.42375 0.5625,1.1875 l 0,2.25 0.78125,0 0,-2.875 c 10e-6,-0.51249 -0.17,-1.34375 -1.125,-1.34375 z m 4.6875,0 c -0.84124,-10e-6 -1.17375,0.62125 -1.3125,0.96875 l -0.0312,-0.875 -0.78125,0 0,4.125 0.78125,0 0,-1.75 c -10e-6,-0.82501 0.45125,-1.6875 1.09375,-1.6875 0.56374,-10e-6 0.5625,0.42375 0.5625,1.1875 l 0,2.25 0.78125,0 0,-2.875 c -6e-5,-0.51234 -0.1388,-1.3436 -1.0938,-1.3436 z m 4,0 c -1.25001,-10e-6 -1.8125,0.8375 -1.8125,2.15625 10e-6,1.30124 0.5625,2.15625 1.8125,2.15625 1.23999,-10e-6 1.8125,-0.855 1.8125,-2.15625 10e-6,-1.31876 -0.5725,-2.15625 -1.8125,-2.15625 z m 8.21875,0 c -0.52876,-10e-6 -1.6875,0.19875 -1.6875,1.96875 -10e-6,1.6225 0.8125,2.34375 2.0625,2.34375 0.45125,-10e-6 0.6925,-0.0462 1.03125,-0.125 l 0,-0.625 c -0.1825,0.0612 -0.425,0.15625 -0.78125,0.15625 -1.1275,0 -1.53125,-1.1025 -1.53125,-1.875 l 2.40625,0 0,-0.1875 c 0,-0.97126 -0.4925,-1.65625 -1.5,-1.65625 z m 4.71875,0 c -0.815,-10e-6 -1.16875,0.6075 -1.28125,0.9375 l 0,-0.84375 -0.78125,0 0,4.125 0.78125,0 0,-1.75 c 10e-6,-1.26751 0.57875,-1.625 1.28125,-1.625 l 0,-0.84375 z m -10.75,0.0937 1.5625,4.125 0.8125,0 1.4375,-4.125 -0.875,0 -0.96875,3 -1.09375,-3 -0.875,0 z m -47.59375,0.3125 c 0.12,0.0188 0.21124,0.0512 0.25,0.125 0.09,0.1675 0,0.4375 0,0.4375 0,0 -0.0825,0.19001 -0.21875,0.28125 -0.0962,0.065 -0.0163,0.345 -0.1875,0.59375 -0.0725,0.10375 -0.16999,0.14874 -0.34375,0.21875 -0.14875,0.06 -0.22,0.12 -0.28125,0.15625 -0.18,0.10375 -0.1175,0.0775 -0.375,0.0625 -0.18625,-0.0113 -0.41001,-0.15501 -0.5625,-0.34375 -0.08,-0.1325 -0.20251,-0.39625 -0.1875,-0.5 0.0512,-0.345 0.27874,-0.38624 0.375,-0.375 0.0962,0.0125 0.81374,0.004 0.90625,-0.125 0.0925,-0.1275 0.0938,-0.15625 0.0937,-0.15625 0,0 0.1375,-0.435 0.53125,-0.375 z M 401,500.46875 c 0.84124,10e-6 0.96875,0.89375 0.96875,1.5625 10e-6,0.65874 -0.1275,1.5625 -0.96875,1.5625 -0.86001,0 -0.96875,-0.90375 -0.96875,-1.5625 -10e-6,-0.66876 0.10875,-1.5625 0.96875,-1.5625 z m 8.1875,0 c 0.59875,10e-6 0.75,0.49 0.75,0.75 l -1.59375,0 c -10e-6,-0.18125 0.20125,-0.75 0.84375,-0.75 z m -50.59375,0.15625 c -0.17125,-0.0325 -0.21876,0.28126 -0.21875,0.28125 0,0 -0.0238,0.0538 -0.0312,0.0937 -0.009,0.04 0.0587,0.31249 0.1875,0.3125 0.12875,0 0.2225,-0.23876 0.25,-0.375 0.0275,-0.13625 -0.015,-0.28126 -0.1875,-0.3125 z m 29.34375,1.625 0.15625,0 0,0.21875 c 0,0.48501 -0.4,1.125 -0.9375,1.125 -0.235,0 -0.46875,-0.21 -0.46875,-0.53125 10e-6,-0.52875 0.63375,-0.8125 1.25,-0.8125 z m -34.21875,0.46875 c 0.015,10e-4 0.0412,10e-6 0.0937,0.0937 0,0 0.01,0.0175 -0.0937,0 -0.002,-0.0175 -0.0163,-0.0962 0,-0.0937 z m 5.21875,0.0937 c -0.0583,0.004 -0.13125,0.0362 -0.1875,0.0625 -0.11125,0.0525 0.0312,0.21876 0.0312,0.21875 0,0 0.32999,0.40125 0.5625,0.28125 0.2325,-0.12 -0.0825,-0.4 -0.21875,-0.5 -0.0681,-0.05 -0.12922,-0.0666 -0.1875,-0.0625 z m 6.03125,0.0312 0.0312,0.0312 c -0.0202,-0.006 -0.0204,0.0195 -0.0312,0.0312 0.004,-0.02 -0.002,-0.0625 0,-0.0625 z m -6.0625,1.1875 c -0.1725,-0.0325 -0.21874,0.24999 -0.21875,0.25 0,0 -0.0225,0.085 -0.0312,0.125 -0.007,0.04 0.0587,0.3125 0.1875,0.3125 0.1275,0 0.22124,-0.23875 0.25,-0.375 0.0275,-0.13625 -0.015,-0.28126 -0.1875,-0.3125 z"
         transform="matrix(0.8,0,0,-0.8,0,595.276)"
         id="path299"
         style="fill:#ffffff;fill-opacity:1;fill-rule:evenodd;stroke:none"
         inkscape:connector-curvature="0" />
    </g>
  </g>
</svg>
